<svg xmlns="http://www.w3.org/2000/svg" viewBox="0 0 32 32" shape-rendering="crispEdges" width="256" height="256">
  <rect x="0" y="0" width="32" height="32" fill="#C0C0C0"/>
  <rect x="0" y="0" width="32" height="1" fill="#FFFFFF"/>
  <rect x="0" y="0" width="1" height="32" fill="#FFFFFF"/>
  <rect x="0" y="31" width="32" height="1" fill="#808080"/>
  <rect x="31" y="0" width="1" height="32" fill="#808080"/>
  <g transform="translate(4,4)">
    <rect x="0" y="0" width="24" height="24" fill="#808080"/>
    <rect x="0" y="0" width="6" height="6" fill="#C0C0C0"/>
    <rect x="6" y="0" width="6" height="6" fill="#C0C0C0"/>
    <rect x="12" y="0" width="6" height="6" fill="#C0C0C0"/>
    <rect x="18" y="0" width="6" height="6" fill="#C0C0C0"/>
    <rect x="0" y="6" width="6" height="6" fill="#C0C0C0"/>
    <rect x="12" y="6" width="6" height="6" fill="#C0C0C0"/>
    <rect x="18" y="6" width="6" height="6" fill="#C0C0C0"/>
    <rect x="0" y="12" width="6" height="6" fill="#C0C0C0"/>
    <rect x="6" y="12" width="6" height="6" fill="#C0C0C0"/>
    <rect x="18" y="12" width="6" height="6" fill="#C0C0C0"/>
    <rect x="0" y="18" width="6" height="6" fill="#C0C0C0"/>
    <rect x="6" y="18" width="6" height="6" fill="#C0C0C0"/>
    <rect x="12" y="18" width="6" height="6" fill="#C0C0C0"/>
    <rect x="18" y="18" width="6" height="6" fill="#C0C0C0"/>
    <g fill="#FFFFFF">
      <rect x="0" y="0" width="6" height="1"/>
      <rect x="0" y="0" width="1" height="6"/>
      <rect x="6" y="0" width="6" height="1"/>
      <rect x="6" y="0" width="1" height="6"/>
      <rect x="12" y="0" width="6" height="1"/>
      <rect x="12" y="0" width="1" height="6"/>
      <rect x="18" y="0" width="6" height="1"/>
      <rect x="18" y="0" width="1" height="6"/>
      <rect x="0" y="6" width="6" height="1"/>
      <rect x="0" y="6" width="1" height="6"/>
      <rect x="12" y="6" width="6" height="1"/>
      <rect x="12" y="6" width="1" height="6"/>
      <rect x="18" y="6" width="6" height="1"/>
      <rect x="18" y="6" width="1" height="6"/>
      <rect x="0" y="12" width="6" height="1"/>
      <rect x="0" y="12" width="1" height="6"/>
      <rect x="6" y="12" width="6" height="1"/>
      <rect x="6" y="12" width="1" height="6"/>
      <rect x="18" y="12" width="6" height="1"/>
      <rect x="18" y="12" width="1" height="6"/>
      <rect x="0" y="18" width="6" height="1"/>
      <rect x="0" y="18" width="1" height="6"/>
      <rect x="6" y="18" width="6" height="1"/>
      <rect x="6" y="18" width="1" height="6"/>
      <rect x="12" y="18" width="6" height="1"/>
      <rect x="12" y="18" width="1" height="6"/>
    </g>
    <!-- revealed mine cell -->
    <rect x="6" y="6" width="6" height="6" fill="#C0C0C0"/>
    <rect x="6" y="6" width="6" height="1" fill="#808080"/>
    <rect x="6" y="6" width="1" height="6" fill="#808080"/>
    <rect x="8" y="7" width="2" height="1" fill="#000"/>
    <rect x="7" y="8" width="4" height="3" fill="#000"/>
    <rect x="8" y="11" width="2" height="1" fill="#000"/>
    <!-- flag cell -->
    <rect x="14" y="14" width="2" height="1" fill="#FF0000"/>
    <rect x="13" y="15" width="3" height="1" fill="#FF0000"/>
    <rect x="14" y="16" width="2" height="1" fill="#FF0000"/>
    <rect x="14" y="17" width="1" height="3" fill="#000"/>
    <rect x="13" y="20" width="3" height="1" fill="#000"/>
  </g>
</svg>
