<svg xmlns="http://www.w3.org/2000/svg" viewBox="0 0 24 24" shape-rendering="crispEdges" width="192" height="192">
  <rect x="0" y="0" width="24" height="24" fill="#C0C0C0"/>
  <rect x="0" y="0" width="24" height="1" fill="#FFFFFF"/>
  <rect x="0" y="0" width="1" height="24" fill="#FFFFFF"/>
  <rect x="0" y="23" width="24" height="1" fill="#808080"/>
  <rect x="23" y="0" width="1" height="24" fill="#808080"/>
  <rect x="6" y="4" width="12" height="1" fill="#000"/>
  <rect x="4" y="5" width="2" height="1" fill="#000"/>
  <rect x="18" y="5" width="2" height="1" fill="#000"/>
  <rect x="6" y="5" width="12" height="1" fill="#FFFF00"/>
  <rect x="3" y="6" width="1" height="2" fill="#000"/>
  <rect x="20" y="6" width="1" height="2" fill="#000"/>
  <rect x="4" y="6" width="16" height="2" fill="#FFFF00"/>
  <rect x="2" y="8" width="1" height="8" fill="#000"/>
  <rect x="21" y="8" width="1" height="8" fill="#000"/>
  <rect x="3" y="8" width="18" height="8" fill="#FFFF00"/>
  <rect x="3" y="16" width="1" height="2" fill="#000"/>
  <rect x="20" y="16" width="1" height="2" fill="#000"/>
  <rect x="4" y="16" width="16" height="2" fill="#FFFF00"/>
  <rect x="4" y="18" width="2" height="1" fill="#000"/>
  <rect x="18" y="18" width="2" height="1" fill="#000"/>
  <rect x="6" y="18" width="12" height="1" fill="#FFFF00"/>
  <rect x="6" y="19" width="12" height="1" fill="#000"/>
  <rect x="3" y="9" width="18" height="1" fill="#000"/>
  <rect x="4" y="10" width="6" height="2" fill="#000"/>
  <rect x="14" y="10" width="6" height="2" fill="#000"/>
  <rect x="5" y="10" width="2" height="1" fill="#FFFFFF"/>
  <rect x="15" y="10" width="2" height="1" fill="#FFFFFF"/>
  <rect x="6" y="14" width="2" height="1" fill="#000"/>
  <rect x="16" y="14" width="2" height="1" fill="#000"/>
  <rect x="7" y="15" width="10" height="1" fill="#000"/>
</svg>
